<svg xmlns="http://www.w3.org/2000/svg" width="509" height="344" viewBox="0 0 509 344" fill="none"><rect width="509" height="344" rx="12" fill="white"></rect><rect x="40" y="104" width="166" height="88" rx="16" fill="#1227E2"></rect><rect x="40" y="216" width="300" height="88" rx="16" fill="#FDDA02"></rect><path d="M70.16 153.192C69.0293 153.192 68.0587 152.952 67.248 152.472C66.4373 151.981 65.8133 151.304 65.376 150.44C64.9387 149.565 64.72 148.557 64.72 147.416C64.72 146.275 64.9387 145.267 65.376 144.392C65.8133 143.517 66.4373 142.835 67.248 142.344C68.0587 141.853 69.0293 141.608 70.16 141.608C71.504 141.608 72.6027 141.944 73.456 142.616C74.32 143.277 74.8587 144.211 75.072 145.416H72.816C72.6773 144.808 72.3787 144.333 71.92 143.992C71.472 143.64 70.8747 143.464 70.128 143.464C69.0933 143.464 68.2827 143.816 67.696 144.52C67.1093 145.224 66.816 146.189 66.816 147.416C66.816 148.643 67.1093 149.608 67.696 150.312C68.2827 151.005 69.0933 151.352 70.128 151.352C70.8747 151.352 71.472 151.192 71.92 150.872C72.3787 150.541 72.6773 150.088 72.816 149.512H75.072C74.8587 150.664 74.32 151.565 73.456 152.216C72.6027 152.867 71.504 153.192 70.16 153.192ZM80.3249 153.192C79.5569 153.192 78.8635 153.016 78.2449 152.664C77.6369 152.312 77.1515 151.827 76.7889 151.208C76.4369 150.579 76.2609 149.853 76.2609 149.032C76.2609 148.211 76.4422 147.491 76.8049 146.872C77.1675 146.243 77.6529 145.752 78.2609 145.4C78.8795 145.048 79.5729 144.872 80.3409 144.872C81.0982 144.872 81.7809 145.048 82.3889 145.4C83.0075 145.752 83.4929 146.243 83.8449 146.872C84.2075 147.491 84.3889 148.211 84.3889 149.032C84.3889 149.853 84.2075 150.579 83.8449 151.208C83.4929 151.827 83.0075 152.312 82.3889 152.664C81.7702 153.016 81.0822 153.192 80.3249 153.192ZM80.3249 151.416C80.8582 151.416 81.3222 151.219 81.7169 150.824C82.1115 150.419 82.3089 149.821 82.3089 149.032C82.3089 148.243 82.1115 147.651 81.7169 147.256C81.3222 146.851 80.8635 146.648 80.3409 146.648C79.7969 146.648 79.3275 146.851 78.9329 147.256C78.5489 147.651 78.3569 148.243 78.3569 149.032C78.3569 149.821 78.5489 150.419 78.9329 150.824C79.3275 151.219 79.7915 151.416 80.3249 151.416ZM85.9 153V145.064H87.708L87.868 146.408C88.1133 145.939 88.4653 145.565 88.924 145.288C89.3933 145.011 89.9427 144.872 90.572 144.872C91.5533 144.872 92.316 145.181 92.86 145.8C93.404 146.419 93.676 147.325 93.676 148.52V153H91.628V148.712C91.628 148.029 91.4893 147.507 91.212 147.144C90.9347 146.781 90.5027 146.6 89.916 146.6C89.34 146.6 88.8653 146.803 88.492 147.208C88.1293 147.613 87.948 148.179 87.948 148.904V153H85.9ZM98.5944 153.192C97.8904 153.192 97.2717 153.08 96.7384 152.856C96.205 152.621 95.7784 152.301 95.4584 151.896C95.1384 151.491 94.9464 151.021 94.8824 150.488H96.9464C97.0104 150.797 97.181 151.064 97.4584 151.288C97.7464 151.501 98.1144 151.608 98.5624 151.608C99.0104 151.608 99.3357 151.517 99.5384 151.336C99.7517 151.155 99.8584 150.947 99.8584 150.712C99.8584 150.371 99.709 150.141 99.4104 150.024C99.1117 149.896 98.6957 149.773 98.1624 149.656C97.821 149.581 97.4744 149.491 97.1224 149.384C96.7704 149.277 96.445 149.144 96.1464 148.984C95.8584 148.813 95.6237 148.6 95.4424 148.344C95.261 148.077 95.1704 147.752 95.1704 147.368C95.1704 146.664 95.4477 146.072 96.0024 145.592C96.5677 145.112 97.357 144.872 98.3704 144.872C99.309 144.872 100.056 145.091 100.61 145.528C101.176 145.965 101.512 146.568 101.618 147.336H99.6824C99.565 146.749 99.1224 146.456 98.3544 146.456C97.9704 146.456 97.6717 146.531 97.4584 146.68C97.2557 146.829 97.1544 147.016 97.1544 147.24C97.1544 147.475 97.309 147.661 97.6184 147.8C97.9277 147.939 98.3384 148.067 98.8504 148.184C99.405 148.312 99.9117 148.456 100.37 148.616C100.84 148.765 101.213 148.995 101.49 149.304C101.768 149.603 101.906 150.035 101.906 150.6C101.917 151.091 101.789 151.533 101.522 151.928C101.256 152.323 100.872 152.632 100.37 152.856C99.869 153.08 99.277 153.192 98.5944 153.192ZM107.257 153.192C106.457 153.192 105.747 153.021 105.129 152.68C104.51 152.339 104.025 151.859 103.673 151.24C103.321 150.621 103.145 149.907 103.145 149.096C103.145 148.275 103.315 147.544 103.657 146.904C104.009 146.264 104.489 145.768 105.097 145.416C105.715 145.053 106.441 144.872 107.273 144.872C108.051 144.872 108.739 145.043 109.337 145.384C109.934 145.725 110.398 146.195 110.729 146.792C111.07 147.379 111.241 148.035 111.241 148.76C111.241 148.877 111.235 149 111.225 149.128C111.225 149.256 111.219 149.389 111.209 149.528H105.177C105.219 150.147 105.433 150.632 105.817 150.984C106.211 151.336 106.686 151.512 107.241 151.512C107.657 151.512 108.003 151.421 108.281 151.24C108.569 151.048 108.782 150.803 108.921 150.504H111.001C110.851 151.005 110.601 151.464 110.249 151.88C109.907 152.285 109.481 152.605 108.969 152.84C108.467 153.075 107.897 153.192 107.257 153.192ZM107.273 146.536C106.771 146.536 106.329 146.68 105.945 146.968C105.561 147.245 105.315 147.672 105.209 148.248H109.161C109.129 147.725 108.937 147.309 108.585 147C108.233 146.691 107.795 146.536 107.273 146.536ZM112.643 153V145.064H114.467L114.659 146.552C114.947 146.04 115.336 145.635 115.827 145.336C116.328 145.027 116.915 144.872 117.587 144.872V147.032H117.011C116.563 147.032 116.163 147.101 115.811 147.24C115.459 147.379 115.182 147.619 114.979 147.96C114.787 148.301 114.691 148.776 114.691 149.384V153H112.643ZM120.811 153L117.899 145.064H120.043L122.059 151.064L124.075 145.064H126.219L123.291 153H120.811ZM129.442 153.192C128.76 153.192 128.2 153.085 127.762 152.872C127.325 152.648 127 152.355 126.786 151.992C126.573 151.629 126.466 151.229 126.466 150.792C126.466 150.056 126.754 149.459 127.33 149C127.906 148.541 128.77 148.312 129.922 148.312H131.938V148.12C131.938 147.576 131.784 147.176 131.474 146.92C131.165 146.664 130.781 146.536 130.322 146.536C129.906 146.536 129.544 146.637 129.234 146.84C128.925 147.032 128.733 147.32 128.658 147.704H126.658C126.712 147.128 126.904 146.627 127.234 146.2C127.576 145.773 128.013 145.448 128.546 145.224C129.08 144.989 129.677 144.872 130.338 144.872C131.469 144.872 132.36 145.155 133.01 145.72C133.661 146.285 133.986 147.085 133.986 148.12V153H132.242L132.05 151.72C131.816 152.147 131.485 152.499 131.058 152.776C130.642 153.053 130.104 153.192 129.442 153.192ZM129.906 151.592C130.493 151.592 130.946 151.4 131.266 151.016C131.597 150.632 131.805 150.157 131.89 149.592H130.146C129.602 149.592 129.213 149.693 128.978 149.896C128.744 150.088 128.626 150.328 128.626 150.616C128.626 150.925 128.744 151.165 128.978 151.336C129.213 151.507 129.522 151.592 129.906 151.592ZM139.047 153C138.215 153 137.549 152.797 137.047 152.392C136.546 151.987 136.295 151.267 136.295 150.232V146.776H134.935V145.064H136.295L136.535 142.936H138.343V145.064H140.487V146.776H138.343V150.248C138.343 150.632 138.423 150.899 138.583 151.048C138.754 151.187 139.042 151.256 139.447 151.256H140.439V153H139.047ZM143.03 143.832C142.656 143.832 142.347 143.72 142.102 143.496C141.867 143.272 141.75 142.989 141.75 142.648C141.75 142.307 141.867 142.029 142.102 141.816C142.347 141.592 142.656 141.48 143.03 141.48C143.403 141.48 143.707 141.592 143.942 141.816C144.187 142.029 144.31 142.307 144.31 142.648C144.31 142.989 144.187 143.272 143.942 143.496C143.707 143.72 143.403 143.832 143.03 143.832ZM142.006 153V145.064H144.054V153H142.006ZM148.015 153L145.103 145.064H147.247L149.263 151.064L151.279 145.064H153.423L150.495 153H148.015ZM157.86 153.192C157.06 153.192 156.351 153.021 155.732 152.68C155.114 152.339 154.628 151.859 154.276 151.24C153.924 150.621 153.748 149.907 153.748 149.096C153.748 148.275 153.919 147.544 154.26 146.904C154.612 146.264 155.092 145.768 155.7 145.416C156.319 145.053 157.044 144.872 157.876 144.872C158.655 144.872 159.343 145.043 159.94 145.384C160.538 145.725 161.002 146.195 161.332 146.792C161.674 147.379 161.844 148.035 161.844 148.76C161.844 148.877 161.839 149 161.828 149.128C161.828 149.256 161.823 149.389 161.812 149.528H155.78C155.823 150.147 156.036 150.632 156.42 150.984C156.815 151.336 157.29 151.512 157.844 151.512C158.26 151.512 158.607 151.421 158.884 151.24C159.172 151.048 159.386 150.803 159.524 150.504H161.604C161.455 151.005 161.204 151.464 160.852 151.88C160.511 152.285 160.084 152.605 159.572 152.84C159.071 153.075 158.5 153.192 157.86 153.192ZM157.876 146.536C157.375 146.536 156.932 146.68 156.548 146.968C156.164 147.245 155.919 147.672 155.812 148.248H159.764C159.732 147.725 159.54 147.309 159.188 147C158.836 146.691 158.399 146.536 157.876 146.536Z" fill="white"></path><path d="M374.054 151.448V148.024H380.07V142.488H383.558V148.024H389.542V151.448H383.558V156.984H380.07V151.448H374.054ZM410.117 159V154.84H399.077V151.576L409.573 136.6H414.213V151.288H417.157V154.84H414.213V159H410.117ZM403.461 151.288H410.373V141.112L403.461 151.288ZM421.401 159.224C420.655 159.224 420.036 158.989 419.545 158.52C419.076 158.051 418.841 157.485 418.841 156.824C418.841 156.141 419.076 155.565 419.545 155.096C420.036 154.627 420.655 154.392 421.401 154.392C422.148 154.392 422.756 154.627 423.225 155.096C423.716 155.565 423.961 156.141 423.961 156.824C423.961 157.485 423.716 158.051 423.225 158.52C422.756 158.989 422.148 159.224 421.401 159.224ZM427.799 159L433.175 151.256C432.855 151.341 432.525 151.405 432.183 151.448C431.863 151.491 431.522 151.512 431.159 151.512C429.751 151.512 428.493 151.213 427.383 150.616C426.295 150.019 425.442 149.165 424.823 148.056C424.205 146.947 423.895 145.624 423.895 144.088C423.895 142.509 424.247 141.133 424.951 139.96C425.655 138.787 426.615 137.869 427.831 137.208C429.047 136.547 430.434 136.216 431.991 136.216C433.613 136.216 435.031 136.557 436.247 137.24C437.485 137.923 438.445 138.861 439.127 140.056C439.81 141.251 440.151 142.605 440.151 144.12C440.151 145.272 439.959 146.413 439.575 147.544C439.191 148.675 438.562 149.88 437.687 151.16L432.407 159H427.799ZM431.991 148.344C433.271 148.344 434.285 147.96 435.031 147.192C435.799 146.403 436.183 145.357 436.183 144.056C436.183 142.755 435.799 141.709 435.031 140.92C434.285 140.131 433.271 139.736 431.991 139.736C430.711 139.736 429.687 140.131 428.919 140.92C428.173 141.709 427.799 142.755 427.799 144.056C427.799 145.357 428.173 146.403 428.919 147.192C429.687 147.96 430.711 148.344 431.991 148.344ZM447.878 147.608C446.854 147.608 445.926 147.384 445.094 146.936C444.262 146.467 443.6 145.805 443.11 144.952C442.619 144.099 442.374 143.085 442.374 141.912C442.374 140.739 442.619 139.725 443.11 138.872C443.6 138.019 444.262 137.368 445.094 136.92C445.926 136.451 446.864 136.216 447.91 136.216C448.934 136.216 449.851 136.451 450.662 136.92C451.494 137.368 452.155 138.019 452.646 138.872C453.136 139.725 453.382 140.739 453.382 141.912C453.382 143.085 453.136 144.099 452.646 144.952C452.155 145.805 451.494 146.467 450.662 146.936C449.83 147.384 448.902 147.608 447.878 147.608ZM446.662 159L459.302 136.6H463.302L450.662 159H446.662ZM447.878 144.76C448.496 144.76 449.03 144.525 449.478 144.056C449.926 143.565 450.15 142.851 450.15 141.912C450.15 140.973 449.926 140.259 449.478 139.768C449.051 139.277 448.518 139.032 447.878 139.032C447.238 139.032 446.694 139.277 446.246 139.768C445.819 140.259 445.606 140.973 445.606 141.912C445.606 142.851 445.819 143.565 446.246 144.056C446.694 144.525 447.238 144.76 447.878 144.76ZM462.214 159.384C461.19 159.384 460.262 159.16 459.43 158.712C458.598 158.243 457.936 157.581 457.446 156.728C456.955 155.875 456.71 154.861 456.71 153.688C456.71 152.515 456.955 151.512 457.446 150.68C457.936 149.827 458.598 149.176 459.43 148.728C460.262 148.259 461.2 148.024 462.246 148.024C463.27 148.024 464.187 148.259 464.998 148.728C465.83 149.176 466.491 149.827 466.982 150.68C467.472 151.512 467.718 152.515 467.718 153.688C467.718 154.861 467.472 155.875 466.982 156.728C466.491 157.581 465.83 158.243 464.998 158.712C464.187 159.16 463.259 159.384 462.214 159.384ZM462.214 156.536C462.854 156.536 463.387 156.301 463.814 155.832C464.262 155.341 464.486 154.627 464.486 153.688C464.486 152.749 464.262 152.035 463.814 151.544C463.387 151.053 462.854 150.808 462.214 150.808C461.574 150.808 461.03 151.053 460.582 151.544C460.155 152.035 459.942 152.749 459.942 153.688C459.942 154.627 460.155 155.341 460.582 155.832C461.03 156.301 461.574 156.536 462.214 156.536Z" fill="black"></path><path d="M376.648 263.448V260.024H382.664V254.488H386.152V260.024H392.136V263.448H386.152V268.984H382.664V263.448H376.648ZM403.751 271L412.199 252.088H401.159V248.6H416.423V251.512L408.007 271H403.751ZM418.682 271.224C417.936 271.224 417.317 270.989 416.826 270.52C416.357 270.051 416.122 269.485 416.122 268.824C416.122 268.141 416.357 267.565 416.826 267.096C417.317 266.627 417.936 266.392 418.682 266.392C419.429 266.392 420.037 266.627 420.506 267.096C420.997 267.565 421.242 268.141 421.242 268.824C421.242 269.485 420.997 270.051 420.506 270.52C420.037 270.989 419.429 271.224 418.682 271.224ZM432.098 271.384C430.455 271.384 429.037 271.096 427.842 270.52C426.669 269.944 425.741 269.155 425.058 268.152C424.397 267.128 424.013 265.976 423.906 264.696H427.906C428.098 265.613 428.567 266.381 429.314 267C430.061 267.597 430.989 267.896 432.098 267.896C433.293 267.896 434.263 267.459 435.01 266.584C435.778 265.709 436.162 264.621 436.162 263.32C436.162 261.976 435.778 260.909 435.01 260.12C434.263 259.331 433.314 258.936 432.162 258.936C431.202 258.936 430.37 259.171 429.666 259.64C428.962 260.109 428.461 260.696 428.162 261.4H424.226L426.146 248.6H438.562V252.184H429.218L428.194 257.368C428.663 256.856 429.303 256.44 430.114 256.12C430.925 255.779 431.831 255.608 432.834 255.608C434.434 255.608 435.767 255.971 436.834 256.696C437.901 257.4 438.711 258.339 439.266 259.512C439.821 260.664 440.098 261.923 440.098 263.288C440.098 264.845 439.757 266.232 439.074 267.448C438.413 268.664 437.474 269.624 436.258 270.328C435.063 271.032 433.677 271.384 432.098 271.384ZM447.878 259.608C446.854 259.608 445.926 259.384 445.094 258.936C444.262 258.467 443.6 257.805 443.11 256.952C442.619 256.099 442.374 255.085 442.374 253.912C442.374 252.739 442.619 251.725 443.11 250.872C443.6 250.019 444.262 249.368 445.094 248.92C445.926 248.451 446.864 248.216 447.91 248.216C448.934 248.216 449.851 248.451 450.662 248.92C451.494 249.368 452.155 250.019 452.646 250.872C453.136 251.725 453.382 252.739 453.382 253.912C453.382 255.085 453.136 256.099 452.646 256.952C452.155 257.805 451.494 258.467 450.662 258.936C449.83 259.384 448.902 259.608 447.878 259.608ZM446.662 271L459.302 248.6H463.302L450.662 271H446.662ZM447.878 256.76C448.496 256.76 449.03 256.525 449.478 256.056C449.926 255.565 450.15 254.851 450.15 253.912C450.15 252.973 449.926 252.259 449.478 251.768C449.051 251.277 448.518 251.032 447.878 251.032C447.238 251.032 446.694 251.277 446.246 251.768C445.819 252.259 445.606 252.973 445.606 253.912C445.606 254.851 445.819 255.565 446.246 256.056C446.694 256.525 447.238 256.76 447.878 256.76ZM462.214 271.384C461.19 271.384 460.262 271.16 459.43 270.712C458.598 270.243 457.936 269.581 457.446 268.728C456.955 267.875 456.71 266.861 456.71 265.688C456.71 264.515 456.955 263.512 457.446 262.68C457.936 261.827 458.598 261.176 459.43 260.728C460.262 260.259 461.2 260.024 462.246 260.024C463.27 260.024 464.187 260.259 464.998 260.728C465.83 261.176 466.491 261.827 466.982 262.68C467.472 263.512 467.718 264.515 467.718 265.688C467.718 266.861 467.472 267.875 466.982 268.728C466.491 269.581 465.83 270.243 464.998 270.712C464.187 271.16 463.259 271.384 462.214 271.384ZM462.214 268.536C462.854 268.536 463.387 268.301 463.814 267.832C464.262 267.341 464.486 266.627 464.486 265.688C464.486 264.749 464.262 264.035 463.814 263.544C463.387 263.053 462.854 262.808 462.214 262.808C461.574 262.808 461.03 263.053 460.582 263.544C460.155 264.035 459.942 264.749 459.942 265.688C459.942 266.627 460.155 267.341 460.582 267.832C461.03 268.301 461.574 268.536 462.214 268.536Z" fill="black"></path><path d="M64.368 265L68.464 253.8H70.768L74.864 265H72.688L71.792 262.408H67.424L66.512 265H64.368ZM67.984 260.808H71.232L69.6 256.152L67.984 260.808ZM79.2988 262.632C78.9148 262.632 78.5574 262.589 78.2268 262.504L77.6348 263.096C77.8161 263.192 78.0614 263.272 78.3708 263.336C78.6801 263.4 79.1814 263.464 79.8748 263.528C80.9308 263.624 81.6988 263.875 82.1788 264.28C82.6588 264.685 82.8988 265.245 82.8988 265.96C82.8988 266.429 82.7708 266.872 82.5148 267.288C82.2588 267.715 81.8641 268.056 81.3308 268.312C80.7974 268.579 80.1148 268.712 79.2828 268.712C78.1521 268.712 77.2401 268.499 76.5468 268.072C75.8534 267.656 75.5068 267.027 75.5068 266.184C75.5068 265.469 75.8534 264.851 76.5468 264.328C76.3334 264.232 76.1468 264.131 75.9868 264.024C75.8374 263.917 75.7041 263.805 75.5868 263.688V263.32L76.9788 261.848C76.3601 261.304 76.0508 260.605 76.0508 259.752C76.0508 259.219 76.1788 258.733 76.4348 258.296C76.7014 257.859 77.0748 257.512 77.5548 257.256C78.0348 257 78.6161 256.872 79.2988 256.872C79.7468 256.872 80.1628 256.936 80.5468 257.064H83.5548V258.312L82.1948 258.408C82.4081 258.813 82.5148 259.261 82.5148 259.752C82.5148 260.285 82.3868 260.771 82.1308 261.208C81.8748 261.645 81.5014 261.992 81.0108 262.248C80.5308 262.504 79.9601 262.632 79.2988 262.632ZM79.2988 261.064C79.7148 261.064 80.0561 260.952 80.3228 260.728C80.6001 260.504 80.7388 260.184 80.7388 259.768C80.7388 259.352 80.6001 259.032 80.3228 258.808C80.0561 258.584 79.7148 258.472 79.2988 258.472C78.8614 258.472 78.5094 258.584 78.2428 258.808C77.9761 259.032 77.8428 259.352 77.8428 259.768C77.8428 260.184 77.9761 260.504 78.2428 260.728C78.5094 260.952 78.8614 261.064 79.2988 261.064ZM77.3788 265.976C77.3788 266.371 77.5601 266.664 77.9228 266.856C78.2961 267.059 78.7494 267.16 79.2828 267.16C79.7948 267.16 80.2108 267.053 80.5308 266.84C80.8508 266.637 81.0108 266.36 81.0108 266.008C81.0108 265.72 80.9041 265.48 80.6908 265.288C80.4881 265.096 80.0774 264.979 79.4588 264.936C79.0214 264.904 78.6161 264.856 78.2428 264.792C77.9334 264.963 77.7094 265.149 77.5708 265.352C77.4428 265.555 77.3788 265.763 77.3788 265.976ZM88.0881 262.632C87.7041 262.632 87.3468 262.589 87.0161 262.504L86.4241 263.096C86.6055 263.192 86.8508 263.272 87.1601 263.336C87.4695 263.4 87.9708 263.464 88.6641 263.528C89.7201 263.624 90.4881 263.875 90.9681 264.28C91.4481 264.685 91.6881 265.245 91.6881 265.96C91.6881 266.429 91.5601 266.872 91.3041 267.288C91.0481 267.715 90.6535 268.056 90.1201 268.312C89.5868 268.579 88.9041 268.712 88.0721 268.712C86.9415 268.712 86.0295 268.499 85.3361 268.072C84.6428 267.656 84.2961 267.027 84.2961 266.184C84.2961 265.469 84.6428 264.851 85.3361 264.328C85.1228 264.232 84.9361 264.131 84.7761 264.024C84.6268 263.917 84.4935 263.805 84.3761 263.688V263.32L85.7681 261.848C85.1495 261.304 84.8401 260.605 84.8401 259.752C84.8401 259.219 84.9681 258.733 85.2241 258.296C85.4908 257.859 85.8641 257.512 86.3441 257.256C86.8241 257 87.4055 256.872 88.0881 256.872C88.5361 256.872 88.9521 256.936 89.3361 257.064H92.3441V258.312L90.9841 258.408C91.1975 258.813 91.3041 259.261 91.3041 259.752C91.3041 260.285 91.1761 260.771 90.9201 261.208C90.6641 261.645 90.2908 261.992 89.8001 262.248C89.3201 262.504 88.7495 262.632 88.0881 262.632ZM88.0881 261.064C88.5041 261.064 88.8455 260.952 89.1121 260.728C89.3895 260.504 89.5281 260.184 89.5281 259.768C89.5281 259.352 89.3895 259.032 89.1121 258.808C88.8455 258.584 88.5041 258.472 88.0881 258.472C87.6508 258.472 87.2988 258.584 87.0321 258.808C86.7655 259.032 86.6321 259.352 86.6321 259.768C86.6321 260.184 86.7655 260.504 87.0321 260.728C87.2988 260.952 87.6508 261.064 88.0881 261.064ZM86.1681 265.976C86.1681 266.371 86.3495 266.664 86.7121 266.856C87.0855 267.059 87.5388 267.16 88.0721 267.16C88.5841 267.16 89.0001 267.053 89.3201 266.84C89.6401 266.637 89.8001 266.36 89.8001 266.008C89.8001 265.72 89.6935 265.48 89.4801 265.288C89.2775 265.096 88.8668 264.979 88.2481 264.936C87.8108 264.904 87.4055 264.856 87.0321 264.792C86.7228 264.963 86.4988 265.149 86.3601 265.352C86.2321 265.555 86.1681 265.763 86.1681 265.976ZM93.5175 265V257.064H95.3415L95.5335 258.552C95.8215 258.04 96.2108 257.635 96.7015 257.336C97.2028 257.027 97.7895 256.872 98.4615 256.872V259.032H97.8855C97.4375 259.032 97.0375 259.101 96.6855 259.24C96.3335 259.379 96.0562 259.619 95.8535 259.96C95.6615 260.301 95.5655 260.776 95.5655 261.384V265H93.5175ZM103.257 265.192C102.457 265.192 101.747 265.021 101.129 264.68C100.51 264.339 100.025 263.859 99.6726 263.24C99.3206 262.621 99.1446 261.907 99.1446 261.096C99.1446 260.275 99.3153 259.544 99.6566 258.904C100.009 258.264 100.489 257.768 101.097 257.416C101.715 257.053 102.441 256.872 103.273 256.872C104.051 256.872 104.739 257.043 105.337 257.384C105.934 257.725 106.398 258.195 106.729 258.792C107.07 259.379 107.241 260.035 107.241 260.76C107.241 260.877 107.235 261 107.225 261.128C107.225 261.256 107.219 261.389 107.209 261.528H101.177C101.219 262.147 101.433 262.632 101.817 262.984C102.211 263.336 102.686 263.512 103.241 263.512C103.657 263.512 104.003 263.421 104.281 263.24C104.569 263.048 104.782 262.803 104.921 262.504H107.001C106.851 263.005 106.601 263.464 106.249 263.88C105.907 264.285 105.481 264.605 104.969 264.84C104.467 265.075 103.897 265.192 103.257 265.192ZM103.273 258.536C102.771 258.536 102.329 258.68 101.945 258.968C101.561 259.245 101.315 259.672 101.209 260.248H105.161C105.129 259.725 104.937 259.309 104.585 259C104.233 258.691 103.795 258.536 103.273 258.536ZM111.923 265.192C111.219 265.192 110.6 265.08 110.067 264.856C109.534 264.621 109.107 264.301 108.787 263.896C108.467 263.491 108.275 263.021 108.211 262.488H110.275C110.339 262.797 110.51 263.064 110.787 263.288C111.075 263.501 111.443 263.608 111.891 263.608C112.339 263.608 112.664 263.517 112.867 263.336C113.08 263.155 113.187 262.947 113.187 262.712C113.187 262.371 113.038 262.141 112.739 262.024C112.44 261.896 112.024 261.773 111.491 261.656C111.15 261.581 110.803 261.491 110.451 261.384C110.099 261.277 109.774 261.144 109.475 260.984C109.187 260.813 108.952 260.6 108.771 260.344C108.59 260.077 108.499 259.752 108.499 259.368C108.499 258.664 108.776 258.072 109.331 257.592C109.896 257.112 110.686 256.872 111.699 256.872C112.638 256.872 113.384 257.091 113.939 257.528C114.504 257.965 114.84 258.568 114.947 259.336H113.011C112.894 258.749 112.451 258.456 111.683 258.456C111.299 258.456 111 258.531 110.787 258.68C110.584 258.829 110.483 259.016 110.483 259.24C110.483 259.475 110.638 259.661 110.947 259.8C111.256 259.939 111.667 260.067 112.179 260.184C112.734 260.312 113.24 260.456 113.699 260.616C114.168 260.765 114.542 260.995 114.819 261.304C115.096 261.603 115.235 262.035 115.235 262.6C115.246 263.091 115.118 263.533 114.851 263.928C114.584 264.323 114.2 264.632 113.699 264.856C113.198 265.08 112.606 265.192 111.923 265.192ZM120.009 265.192C119.305 265.192 118.687 265.08 118.153 264.856C117.62 264.621 117.193 264.301 116.873 263.896C116.553 263.491 116.361 263.021 116.297 262.488H118.361C118.425 262.797 118.596 263.064 118.873 263.288C119.161 263.501 119.529 263.608 119.977 263.608C120.425 263.608 120.751 263.517 120.953 263.336C121.167 263.155 121.273 262.947 121.273 262.712C121.273 262.371 121.124 262.141 120.825 262.024C120.527 261.896 120.111 261.773 119.577 261.656C119.236 261.581 118.889 261.491 118.537 261.384C118.185 261.277 117.86 261.144 117.561 260.984C117.273 260.813 117.039 260.6 116.857 260.344C116.676 260.077 116.585 259.752 116.585 259.368C116.585 258.664 116.863 258.072 117.417 257.592C117.983 257.112 118.772 256.872 119.785 256.872C120.724 256.872 121.471 257.091 122.025 257.528C122.591 257.965 122.927 258.568 123.033 259.336H121.097C120.98 258.749 120.537 258.456 119.769 258.456C119.385 258.456 119.087 258.531 118.873 258.68C118.671 258.829 118.569 259.016 118.569 259.24C118.569 259.475 118.724 259.661 119.033 259.8C119.343 259.939 119.753 260.067 120.265 260.184C120.82 260.312 121.327 260.456 121.785 260.616C122.255 260.765 122.628 260.995 122.905 261.304C123.183 261.603 123.321 262.035 123.321 262.6C123.332 263.091 123.204 263.533 122.937 263.928C122.671 264.323 122.287 264.632 121.785 264.856C121.284 265.08 120.692 265.192 120.009 265.192ZM125.92 255.832C125.546 255.832 125.237 255.72 124.992 255.496C124.757 255.272 124.64 254.989 124.64 254.648C124.64 254.307 124.757 254.029 124.992 253.816C125.237 253.592 125.546 253.48 125.92 253.48C126.293 253.48 126.597 253.592 126.832 253.816C127.077 254.029 127.2 254.307 127.2 254.648C127.2 254.989 127.077 255.272 126.832 255.496C126.597 255.72 126.293 255.832 125.92 255.832ZM124.896 265V257.064H126.944V265H124.896ZM130.905 265L127.993 257.064H130.137L132.153 263.064L134.169 257.064H136.313L133.385 265H130.905ZM140.75 265.192C139.95 265.192 139.241 265.021 138.622 264.68C138.004 264.339 137.518 263.859 137.166 263.24C136.814 262.621 136.638 261.907 136.638 261.096C136.638 260.275 136.809 259.544 137.15 258.904C137.502 258.264 137.982 257.768 138.59 257.416C139.209 257.053 139.934 256.872 140.766 256.872C141.545 256.872 142.233 257.043 142.83 257.384C143.428 257.725 143.892 258.195 144.222 258.792C144.564 259.379 144.734 260.035 144.734 260.76C144.734 260.877 144.729 261 144.718 261.128C144.718 261.256 144.713 261.389 144.702 261.528H138.67C138.713 262.147 138.926 262.632 139.31 262.984C139.705 263.336 140.18 263.512 140.734 263.512C141.15 263.512 141.497 263.421 141.774 263.24C142.062 263.048 142.276 262.803 142.414 262.504H144.494C144.345 263.005 144.094 263.464 143.742 263.88C143.401 264.285 142.974 264.605 142.462 264.84C141.961 265.075 141.39 265.192 140.75 265.192ZM140.766 258.536C140.265 258.536 139.822 258.68 139.438 258.968C139.054 259.245 138.809 259.672 138.702 260.248H142.654C142.622 259.725 142.43 259.309 142.078 259C141.726 258.691 141.289 258.536 140.766 258.536Z" fill="black"></path><path d="M43.456 64V50.704L40.696 51.352V49L44.752 47.2H46.648V64H43.456ZM56.3134 64.288C54.7614 64.288 53.4334 63.928 52.3294 63.208C51.2254 62.472 50.3694 61.456 49.7614 60.16C49.1694 58.848 48.8734 57.328 48.8734 55.6C48.8734 53.888 49.1694 52.376 49.7614 51.064C50.3694 49.752 51.2254 48.736 52.3294 48.016C53.4334 47.28 54.7614 46.912 56.3134 46.912C57.8654 46.912 59.1934 47.28 60.2974 48.016C61.4014 48.736 62.2494 49.752 62.8414 51.064C63.4494 52.376 63.7534 53.888 63.7534 55.6C63.7534 57.328 63.4494 58.848 62.8414 60.16C62.2494 61.456 61.4014 62.472 60.2974 63.208C59.1934 63.928 57.8654 64.288 56.3134 64.288ZM56.3134 61.528C57.5774 61.528 58.6094 61 59.4094 59.944C60.2094 58.888 60.6094 57.44 60.6094 55.6C60.6094 53.76 60.2094 52.312 59.4094 51.256C58.6094 50.2 57.5774 49.672 56.3134 49.672C55.0334 49.672 53.9934 50.2 53.1934 51.256C52.4094 52.312 52.0174 53.76 52.0174 55.6C52.0174 57.44 52.4094 58.888 53.1934 59.944C53.9934 61 55.0334 61.528 56.3134 61.528ZM75.5672 64V58.024L69.9272 47.2H73.4072L77.1272 54.952L80.8233 47.2H84.2552L78.6392 58.024V64H75.5672ZM89.3224 64.288C88.1224 64.288 87.0584 64.032 86.1304 63.52C85.2024 63.008 84.4744 62.288 83.9464 61.36C83.4184 60.432 83.1544 59.36 83.1544 58.144C83.1544 56.912 83.4104 55.816 83.9224 54.856C84.4504 53.896 85.1704 53.152 86.0824 52.624C87.0104 52.08 88.0984 51.808 89.3464 51.808C90.5144 51.808 91.5464 52.064 92.4424 52.576C93.3384 53.088 94.0344 53.792 94.5304 54.688C95.0424 55.568 95.2984 56.552 95.2984 57.64C95.2984 57.816 95.2904 58 95.2744 58.192C95.2744 58.384 95.2664 58.584 95.2504 58.792H86.2024C86.2664 59.72 86.5864 60.448 87.1624 60.976C87.7544 61.504 88.4664 61.768 89.2984 61.768C89.9224 61.768 90.4424 61.632 90.8584 61.36C91.2904 61.072 91.6104 60.704 91.8184 60.256H94.9384C94.7144 61.008 94.3384 61.696 93.8104 62.32C93.2984 62.928 92.6584 63.408 91.8904 63.76C91.1384 64.112 90.2824 64.288 89.3224 64.288ZM89.3464 54.304C88.5944 54.304 87.9304 54.52 87.3544 54.952C86.7784 55.368 86.4104 56.008 86.2504 56.872H92.1784C92.1304 56.088 91.8424 55.464 91.3144 55C90.7864 54.536 90.1304 54.304 89.3464 54.304ZM101.506 64.288C100.482 64.288 99.6422 64.128 98.9862 63.808C98.3302 63.472 97.8422 63.032 97.5222 62.488C97.2022 61.944 97.0422 61.344 97.0422 60.688C97.0422 59.584 97.4742 58.688 98.3382 58C99.2022 57.312 100.498 56.968 102.226 56.968H105.25V56.68C105.25 55.864 105.018 55.264 104.554 54.88C104.09 54.496 103.514 54.304 102.826 54.304C102.202 54.304 101.658 54.456 101.194 54.76C100.73 55.048 100.442 55.48 100.33 56.056H97.3302C97.4102 55.192 97.6982 54.44 98.1942 53.8C98.7062 53.16 99.3622 52.672 100.162 52.336C100.962 51.984 101.858 51.808 102.85 51.808C104.546 51.808 105.882 52.232 106.858 53.08C107.834 53.928 108.322 55.128 108.322 56.68V64H105.706L105.418 62.08C105.066 62.72 104.57 63.248 103.93 63.664C103.306 64.08 102.498 64.288 101.506 64.288ZM102.202 61.888C103.082 61.888 103.762 61.6 104.242 61.024C104.738 60.448 105.05 59.736 105.178 58.888H102.562C101.746 58.888 101.162 59.04 100.81 59.344C100.458 59.632 100.282 59.992 100.282 60.424C100.282 60.888 100.458 61.248 100.81 61.504C101.162 61.76 101.626 61.888 102.202 61.888ZM110.774 64V52.096H113.51L113.798 54.328C114.23 53.56 114.814 52.952 115.55 52.504C116.302 52.04 117.182 51.808 118.19 51.808V55.048H117.326C116.654 55.048 116.054 55.152 115.526 55.36C114.998 55.568 114.582 55.928 114.278 56.44C113.99 56.952 113.846 57.664 113.846 58.576V64H110.774ZM124.04 64L130.184 47.2H133.64L139.784 64H136.52L135.176 60.112H128.624L127.256 64H124.04ZM129.464 57.712H134.336L131.888 50.728L129.464 57.712ZM141.396 64V52.096H144.108L144.348 54.112C144.716 53.408 145.244 52.848 145.932 52.432C146.636 52.016 147.46 51.808 148.404 51.808C149.876 51.808 151.02 52.272 151.836 53.2C152.652 54.128 153.06 55.488 153.06 57.28V64H149.988V57.568C149.988 56.544 149.78 55.76 149.364 55.216C148.948 54.672 148.3 54.4 147.42 54.4C146.556 54.4 145.844 54.704 145.284 55.312C144.74 55.92 144.468 56.768 144.468 57.856V64H141.396ZM155.518 64V52.096H158.23L158.47 54.112C158.838 53.408 159.366 52.848 160.054 52.432C160.758 52.016 161.582 51.808 162.526 51.808C163.998 51.808 165.142 52.272 165.958 53.2C166.774 54.128 167.182 55.488 167.182 57.28V64H164.11V57.568C164.11 56.544 163.902 55.76 163.486 55.216C163.07 54.672 162.422 54.4 161.542 54.4C160.678 54.4 159.966 54.704 159.406 55.312C158.862 55.92 158.59 56.768 158.59 57.856V64H155.518ZM174.103 64.288C172.615 64.288 171.463 63.824 170.647 62.896C169.847 61.968 169.447 60.608 169.447 58.816V52.096H172.495V58.528C172.495 59.552 172.703 60.336 173.119 60.88C173.535 61.424 174.191 61.696 175.087 61.696C175.935 61.696 176.631 61.392 177.175 60.784C177.735 60.176 178.015 59.328 178.015 58.24V52.096H181.087V64H178.375L178.135 61.984C177.767 62.688 177.231 63.248 176.527 63.664C175.839 64.08 175.031 64.288 174.103 64.288ZM187.865 64.288C186.841 64.288 186.001 64.128 185.345 63.808C184.689 63.472 184.201 63.032 183.881 62.488C183.561 61.944 183.401 61.344 183.401 60.688C183.401 59.584 183.833 58.688 184.697 58C185.561 57.312 186.857 56.968 188.585 56.968H191.609V56.68C191.609 55.864 191.377 55.264 190.913 54.88C190.449 54.496 189.873 54.304 189.185 54.304C188.561 54.304 188.017 54.456 187.553 54.76C187.089 55.048 186.801 55.48 186.689 56.056H183.689C183.769 55.192 184.057 54.44 184.553 53.8C185.065 53.16 185.721 52.672 186.521 52.336C187.321 51.984 188.217 51.808 189.209 51.808C190.905 51.808 192.241 52.232 193.217 53.08C194.193 53.928 194.681 55.128 194.681 56.68V64H192.065L191.777 62.08C191.425 62.72 190.929 63.248 190.289 63.664C189.665 64.08 188.857 64.288 187.865 64.288ZM188.561 61.888C189.441 61.888 190.121 61.6 190.601 61.024C191.097 60.448 191.409 59.736 191.537 58.888H188.921C188.105 58.888 187.521 59.04 187.169 59.344C186.817 59.632 186.641 59.992 186.641 60.424C186.641 60.888 186.817 61.248 187.169 61.504C187.521 61.76 187.985 61.888 188.561 61.888ZM197.132 64V46.72H200.204V64H197.132ZM204.519 50.248C203.959 50.248 203.495 50.08 203.127 49.744C202.775 49.408 202.599 48.984 202.599 48.472C202.599 47.96 202.775 47.544 203.127 47.224C203.495 46.888 203.959 46.72 204.519 46.72C205.079 46.72 205.535 46.888 205.887 47.224C206.255 47.544 206.439 47.96 206.439 48.472C206.439 48.984 206.255 49.408 205.887 49.744C205.535 50.08 205.079 50.248 204.519 50.248ZM202.983 64V52.096H206.055V64H202.983ZM208.014 64V61.528L214.086 54.64H208.086V52.096H217.59V54.568L211.422 61.456H217.71V64H208.014ZM225.57 64.288C224.37 64.288 223.306 64.032 222.378 63.52C221.45 63.008 220.722 62.288 220.194 61.36C219.666 60.432 219.402 59.36 219.402 58.144C219.402 56.912 219.658 55.816 220.17 54.856C220.698 53.896 221.418 53.152 222.33 52.624C223.258 52.08 224.346 51.808 225.594 51.808C226.762 51.808 227.794 52.064 228.69 52.576C229.586 53.088 230.282 53.792 230.778 54.688C231.29 55.568 231.546 56.552 231.546 57.64C231.546 57.816 231.538 58 231.522 58.192C231.522 58.384 231.514 58.584 231.498 58.792H222.45C222.514 59.72 222.834 60.448 223.41 60.976C224.002 61.504 224.714 61.768 225.546 61.768C226.17 61.768 226.69 61.632 227.106 61.36C227.538 61.072 227.858 60.704 228.066 60.256H231.186C230.962 61.008 230.586 61.696 230.058 62.32C229.546 62.928 228.906 63.408 228.138 63.76C227.386 64.112 226.53 64.288 225.57 64.288ZM225.594 54.304C224.842 54.304 224.178 54.52 223.602 54.952C223.026 55.368 222.658 56.008 222.498 56.872H228.426C228.378 56.088 228.09 55.464 227.562 55C227.034 54.536 226.378 54.304 225.594 54.304ZM239.122 64.288C238.002 64.288 237.002 64.016 236.122 63.472C235.242 62.928 234.546 62.184 234.034 61.24C233.522 60.296 233.266 59.224 233.266 58.024C233.266 56.824 233.522 55.76 234.034 54.832C234.546 53.888 235.242 53.152 236.122 52.624C237.002 52.08 238.002 51.808 239.122 51.808C240.018 51.808 240.802 51.976 241.474 52.312C242.146 52.648 242.69 53.12 243.106 53.728V46.72H246.178V64H243.442L243.106 62.296C242.722 62.824 242.21 63.288 241.57 63.688C240.946 64.088 240.13 64.288 239.122 64.288ZM239.77 61.6C240.762 61.6 241.57 61.272 242.194 60.616C242.834 59.944 243.154 59.088 243.154 58.048C243.154 57.008 242.834 56.16 242.194 55.504C241.57 54.832 240.762 54.496 239.77 54.496C238.794 54.496 237.986 54.824 237.346 55.48C236.706 56.136 236.386 56.984 236.386 58.024C236.386 59.064 236.706 59.92 237.346 60.592C237.986 61.264 238.794 61.6 239.77 61.6ZM254.137 64V47.2H260.305C261.649 47.2 262.753 47.432 263.617 47.896C264.497 48.344 265.153 48.96 265.585 49.744C266.017 50.512 266.233 51.368 266.233 52.312C266.233 53.336 265.961 54.272 265.417 55.12C264.889 55.968 264.057 56.584 262.921 56.968L266.401 64H262.873L259.753 57.376H257.209V64H254.137ZM257.209 55.12H260.113C261.137 55.12 261.889 54.872 262.369 54.376C262.849 53.88 263.089 53.224 263.089 52.408C263.089 51.608 262.849 50.968 262.369 50.488C261.905 50.008 261.145 49.768 260.089 49.768H257.209V55.12ZM273.596 64.288C272.396 64.288 271.332 64.032 270.404 63.52C269.476 63.008 268.748 62.288 268.22 61.36C267.692 60.432 267.428 59.36 267.428 58.144C267.428 56.912 267.684 55.816 268.196 54.856C268.724 53.896 269.444 53.152 270.356 52.624C271.284 52.08 272.372 51.808 273.62 51.808C274.788 51.808 275.82 52.064 276.716 52.576C277.612 53.088 278.308 53.792 278.804 54.688C279.316 55.568 279.572 56.552 279.572 57.64C279.572 57.816 279.564 58 279.548 58.192C279.548 58.384 279.54 58.584 279.524 58.792H270.476C270.54 59.72 270.86 60.448 271.436 60.976C272.028 61.504 272.74 61.768 273.572 61.768C274.196 61.768 274.716 61.632 275.132 61.36C275.564 61.072 275.884 60.704 276.092 60.256H279.212C278.988 61.008 278.612 61.696 278.084 62.32C277.572 62.928 276.932 63.408 276.164 63.76C275.412 64.112 274.556 64.288 273.596 64.288ZM273.62 54.304C272.868 54.304 272.204 54.52 271.628 54.952C271.052 55.368 270.684 56.008 270.524 56.872H276.452C276.404 56.088 276.116 55.464 275.588 55C275.06 54.536 274.404 54.304 273.62 54.304ZM286.768 64C285.52 64 284.52 63.696 283.768 63.088C283.016 62.48 282.64 61.4 282.64 59.848V54.664H280.6V52.096H282.64L283 48.904H285.712V52.096H288.928V54.664H285.712V59.872C285.712 60.448 285.832 60.848 286.072 61.072C286.328 61.28 286.76 61.384 287.368 61.384H288.856V64H286.768ZM295.55 64.288C294.062 64.288 292.91 63.824 292.094 62.896C291.294 61.968 290.894 60.608 290.894 58.816V52.096H293.942V58.528C293.942 59.552 294.15 60.336 294.566 60.88C294.982 61.424 295.638 61.696 296.534 61.696C297.382 61.696 298.078 61.392 298.622 60.784C299.182 60.176 299.462 59.328 299.462 58.24V52.096H302.534V64H299.822L299.582 61.984C299.214 62.688 298.678 63.248 297.974 63.664C297.286 64.08 296.478 64.288 295.55 64.288ZM305.207 64V52.096H307.943L308.231 54.328C308.663 53.56 309.247 52.952 309.983 52.504C310.735 52.04 311.615 51.808 312.623 51.808V55.048H311.759C311.087 55.048 310.487 55.152 309.959 55.36C309.431 55.568 309.015 55.928 308.711 56.44C308.423 56.952 308.279 57.664 308.279 58.576V64H305.207ZM314.243 64V52.096H316.955L317.195 54.112C317.563 53.408 318.091 52.848 318.779 52.432C319.483 52.016 320.307 51.808 321.251 51.808C322.723 51.808 323.867 52.272 324.683 53.2C325.499 54.128 325.907 55.488 325.907 57.28V64H322.835V57.568C322.835 56.544 322.627 55.76 322.211 55.216C321.795 54.672 321.147 54.4 320.267 54.4C319.403 54.4 318.691 54.704 318.131 55.312C317.587 55.92 317.315 56.768 317.315 57.856V64H314.243ZM333.285 64.288C332.229 64.288 331.301 64.12 330.501 63.784C329.701 63.432 329.061 62.952 328.581 62.344C328.101 61.736 327.813 61.032 327.717 60.232H330.813C330.909 60.696 331.165 61.096 331.581 61.432C332.013 61.752 332.565 61.912 333.237 61.912C333.909 61.912 334.397 61.776 334.701 61.504C335.021 61.232 335.181 60.92 335.181 60.568C335.181 60.056 334.957 59.712 334.509 59.536C334.061 59.344 333.437 59.16 332.637 58.984C332.125 58.872 331.605 58.736 331.077 58.576C330.549 58.416 330.061 58.216 329.613 57.976C329.181 57.72 328.829 57.4 328.557 57.016C328.285 56.616 328.149 56.128 328.149 55.552C328.149 54.496 328.565 53.608 329.397 52.888C330.245 52.168 331.429 51.808 332.949 51.808C334.357 51.808 335.477 52.136 336.309 52.792C337.157 53.448 337.661 54.352 337.821 55.504H334.917C334.741 54.624 334.077 54.184 332.925 54.184C332.349 54.184 331.901 54.296 331.581 54.52C331.277 54.744 331.125 55.024 331.125 55.36C331.125 55.712 331.357 55.992 331.821 56.2C332.285 56.408 332.901 56.6 333.669 56.776C334.501 56.968 335.261 57.184 335.949 57.424C336.653 57.648 337.213 57.992 337.629 58.456C338.045 58.904 338.253 59.552 338.253 60.4C338.269 61.136 338.077 61.8 337.677 62.392C337.277 62.984 336.701 63.448 335.949 63.784C335.197 64.12 334.309 64.288 333.285 64.288Z" fill="black"></path></svg>